<mxfile host="app.diagrams.net" modified="2023-11-02T21:25:06.305Z" agent="Mozilla/5.0 (Macintosh; Intel Mac OS X 10_15_7) AppleWebKit/537.36 (KHTML, like Gecko) Chrome/118.0.0.0 Safari/537.36" version="21.7.5" etag="Wi_rz4WtVwGXJzDud7sd" type="github">
  <diagram name="Page-1" id="MokmPf0QI1SzqAHAF2hY">
    <mxGraphModel>
      <root>
        <mxCell id="0" />
        <mxCell id="1" parent="0" />
      </root>
    </mxGraphModel>
  </diagram>
</mxfile>
